<svg viewBox="0 0 475 636" fill="none" xmlns="http://www.w3.org/2000/svg">
<g filter="url(#filter0_d_1_318)">
<path d="M20 9.46716C20 6.70574 22.2386 4.46717 25 4.46717L319.827 4.46716C321.213 4.46716 322.537 5.04274 323.483 6.05644L463.389 156.028C464.252 156.953 464.732 158.171 464.733 159.436L464.997 614.464C464.999 617.227 462.76 619.467 459.997 619.467H25C22.2386 619.467 20 617.229 20 614.467V9.46716Z" fill="url(#paint0_linear_1_318)"/>
<path d="M319.826 3.46716C321.49 3.46716 323.079 4.15794 324.214 5.37439L464.12 155.346C465.156 156.456 465.732 157.917 465.733 159.435L465.997 614.463C465.999 617.778 463.312 620.467 459.997 620.467H25C21.6863 620.467 19 617.781 19 614.467V9.46716C19 6.15345 21.6863 3.46716 25 3.46716H319.826Z" stroke="#E5E5E5" stroke-width="2"/>
</g>
<g filter="url(#filter1_d_1_318)">
<path d="M323.011 158.457L462.23 156.991C463.099 156.982 463.544 155.944 462.95 155.308L323.731 6.31927C323.111 5.65632 322 6.09468 322 7.00201L322 157.457C322 158.013 322.454 158.462 323.011 158.457Z" fill="#F61F15"/>
</g>
<path d="M218.025 174.21C219.111 154.44 243.364 152.033 249.699 174.21C254.766 191.951 246.617 220.454 241.429 240.807C246.617 252.773 263.566 274.95 273.667 284.749C307.395 279.591 326.399 280.167 338.897 286.124C355.847 294.204 352.251 314.083 335.815 315.693C321.776 317.068 301.06 315.692 271.613 291.109C263.965 292.141 241.172 296.576 213.916 306.066C203.473 322.913 188.92 345.955 176.593 355.92C156.39 372.252 141.153 366.922 136.873 357.983C131.052 342.167 154.678 327.382 197.651 306.066C204.442 292.542 220.114 258.721 228.469 231.628C224.816 222.861 216.656 199.137 218.025 174.21ZM191.83 315.349C133.278 340.72 136.017 357.811 146.974 359.53C157.932 361.249 171.457 347.324 191.83 315.349ZM335.131 300.221C334.446 284.061 309.792 284.061 277.605 289.562C315.1 316.38 335.131 311.567 335.131 300.221ZM238.57 247.272C229.53 274.09 220.764 292.944 217.512 299.018C241.891 291.454 261.226 287.385 267.846 286.296C254.287 270.893 242.679 253.862 238.57 247.272ZM231.55 223.032C245.76 177.476 240.967 163.036 230.181 164.583C218.882 166.474 220.422 198.793 231.55 223.032Z" fill="#FF2116"/>
<rect y="426.467" width="384" height="171" rx="5" fill="url(#paint1_linear_1_318)"/>
<g filter="url(#filter2_d_1_318)">
<path d="M116.717 524.999H92.6592V512.368H116.717C120.906 512.368 124.292 511.69 126.873 510.336C129.454 508.982 131.338 507.12 132.522 504.75C133.75 502.338 134.363 499.588 134.363 496.498C134.363 493.578 133.75 490.849 132.522 488.31C131.338 485.729 129.454 483.655 126.873 482.089C124.292 480.523 120.906 479.741 116.717 479.741H97.5469V559.467H81.6143V467.045H116.717C123.868 467.045 129.941 468.315 134.935 470.854C139.97 473.351 143.8 476.821 146.424 481.264C149.048 485.665 150.359 490.701 150.359 496.371C150.359 502.338 149.048 507.459 146.424 511.733C143.8 516.007 139.97 519.286 134.935 521.572C129.941 523.857 123.868 524.999 116.717 524.999ZM191.492 559.467H171.751L171.878 546.835H191.492C197.205 546.835 201.987 545.587 205.838 543.09C209.731 540.593 212.651 537.018 214.598 532.363C216.587 527.708 217.581 522.164 217.581 515.732V510.717C217.581 505.724 217.01 501.301 215.867 497.451C214.767 493.6 213.117 490.362 210.916 487.739C208.758 485.115 206.092 483.126 202.918 481.772C199.786 480.418 196.168 479.741 192.063 479.741H171.37V467.045H192.063C198.2 467.045 203.807 468.082 208.885 470.156C213.963 472.187 218.343 475.128 222.024 478.979C225.748 482.83 228.605 487.442 230.594 492.817C232.583 498.191 233.577 504.2 233.577 510.844V515.732C233.577 522.376 232.583 528.385 230.594 533.759C228.605 539.134 225.748 543.746 222.024 547.597C218.3 551.406 213.857 554.347 208.694 556.42C203.574 558.452 197.84 559.467 191.492 559.467ZM180.574 467.045V559.467H164.642V467.045H180.574ZM265.506 467.045V559.467H249.573V467.045H265.506ZM303.211 507.48V520.112H261.443V507.48H303.211ZM308.479 467.045V479.741H261.443V467.045H308.479Z" fill="white"/>
</g>
<defs>
<filter id="filter0_d_1_318" x="10" y="0.467163" width="464.997" height="635" filterUnits="userSpaceOnUse" color-interpolation-filters="sRGB">
<feFlood flood-opacity="0" result="BackgroundImageFix"/>
<feColorMatrix in="SourceAlpha" type="matrix" values="0 0 0 0 0 0 0 0 0 0 0 0 0 0 0 0 0 0 127 0" result="hardAlpha"/>
<feOffset dy="6"/>
<feGaussianBlur stdDeviation="4"/>
<feComposite in2="hardAlpha" operator="out"/>
<feColorMatrix type="matrix" values="0 0 0 0 0 0 0 0 0 0 0 0 0 0 0 0 0 0 0.35 0"/>
<feBlend mode="normal" in2="BackgroundImageFix" result="effect1_dropShadow_1_318"/>
<feBlend mode="normal" in="SourceGraphic" in2="effect1_dropShadow_1_318" result="shape"/>
</filter>
<filter id="filter1_d_1_318" x="311" y="0" width="157.221" height="168.457" filterUnits="userSpaceOnUse" color-interpolation-filters="sRGB">
<feFlood flood-opacity="0" result="BackgroundImageFix"/>
<feColorMatrix in="SourceAlpha" type="matrix" values="0 0 0 0 0 0 0 0 0 0 0 0 0 0 0 0 0 0 127 0" result="hardAlpha"/>
<feOffset dx="-3" dy="2"/>
<feGaussianBlur stdDeviation="4"/>
<feComposite in2="hardAlpha" operator="out"/>
<feColorMatrix type="matrix" values="0 0 0 0 0 0 0 0 0 0 0 0 0 0 0 0 0 0 0.25 0"/>
<feBlend mode="normal" in2="BackgroundImageFix" result="effect1_dropShadow_1_318"/>
<feBlend mode="normal" in="SourceGraphic" in2="effect1_dropShadow_1_318" result="shape"/>
</filter>
<filter id="filter2_d_1_318" x="77.6143" y="467.045" width="234.865" height="100.422" filterUnits="userSpaceOnUse" color-interpolation-filters="sRGB">
<feFlood flood-opacity="0" result="BackgroundImageFix"/>
<feColorMatrix in="SourceAlpha" type="matrix" values="0 0 0 0 0 0 0 0 0 0 0 0 0 0 0 0 0 0 127 0" result="hardAlpha"/>
<feOffset dy="4"/>
<feGaussianBlur stdDeviation="2"/>
<feComposite in2="hardAlpha" operator="out"/>
<feColorMatrix type="matrix" values="0 0 0 0 0 0 0 0 0 0 0 0 0 0 0 0 0 0 0.25 0"/>
<feBlend mode="normal" in2="BackgroundImageFix" result="effect1_dropShadow_1_318"/>
<feBlend mode="normal" in="SourceGraphic" in2="effect1_dropShadow_1_318" result="shape"/>
</filter>
<linearGradient id="paint0_linear_1_318" x1="236" y1="4.46716" x2="243" y2="762.467" gradientUnits="userSpaceOnUse">
<stop stop-color="#F7F7F7"/>
<stop offset="1" stop-color="#E0E0E0"/>
</linearGradient>
<linearGradient id="paint1_linear_1_318" x1="192" y1="646.967" x2="192" y2="397.967" gradientUnits="userSpaceOnUse">
<stop stop-color="#D0180E"/>
<stop offset="1" stop-color="#FF2116"/>
</linearGradient>
</defs>
</svg>
